<?xml version="1.0" encoding="utf-8"?>
<!-- Generator: Adobe Illustrator 28.2.0, SVG Export Plug-In . SVG Version: 6.00 Build 0)  -->
<svg version="1.1" id="Layer_1" xmlns="http://www.w3.org/2000/svg" xmlns:xlink="http://www.w3.org/1999/xlink" x="0px" y="0px"
	 viewBox="0 0 698.33 204.63" style="enable-background:new 0 0 698.33 204.63;" xml:space="preserve">
<style type="text/css">
	.st0{fill:#00469B;}
	.st1{fill:#FFFFFF;}
</style>
<path class="st0" d="M102.17,0.38c20.49,0,40.99-0.22,61.47,0.06c19.58,0.27,37.96,17.79,38.51,37.5c0.81,28.48,0.79,57,0.88,85.5
	c0.04,13.49-0.13,27-0.82,40.47c-1.09,21.28-19,38.47-40.23,38.57c-40.33,0.19-80.66,0.19-120.99,0
	c-21.51-0.1-40.26-17.73-40.56-39.4c-0.59-41.5-0.55-83.02-0.02-124.53C0.67,17.71,18.8,0.69,39.69,0.44
	C60.51,0.19,81.34,0.38,102.17,0.38z M183.29,100.95c0-17.84,0.11-35.69-0.04-53.53c-0.12-14.28-7.21-23.8-20.1-26.59
	c-5.15-1.12-10.58-1.35-15.88-1.37c-29.5-0.13-59-0.12-88.5-0.02c-5.81,0.02-11.65,0.39-17.43,1.03
	c-11.22,1.24-19.2,8.91-21.08,20.06c-0.58,3.43-0.94,6.94-0.95,10.41c-0.07,34.19-0.1,68.37-0.01,102.56
	c0.04,16.54,7.22,25.98,21.89,28.72c4.72,0.88,9.61,1.08,14.43,1.1c29.83,0.12,59.67,0.15,89.5,0.09c4.99-0.01,9.98-0.48,14.95-0.94
	c10.88-1.02,19.22-7.65,21.71-17.65c1-3.99,1.41-8.21,1.45-12.34C183.38,135.31,183.29,118.13,183.29,100.95z"/>
<path d="M647.48,47.85c-3.86,14.43-7.72,28.87-11.57,43.28c-0.68,0.14-1.16,0.33-1.64,0.32c-5.16-0.03-11.56,1.74-15.12-0.67
	c-3.38-2.3-3.95-8.93-5.44-13.75c-5.23-16.89-10.33-33.82-15.62-51.22c5.73,0,11.08,0,16.91,0c4.04,15.25,8.15,30.78,12.47,47.09
	c4.06-15.3,7.87-29.64,11.67-43.98c0.21-0.8,0.28-2.3,0.53-2.32c4.84-0.5,9.7-1.09,14.54-0.99c1.08,0.02,2.64,2.44,3.08,4
	c3.92,14.18,7.64,28.41,11.64,43.42c4.26-16.26,8.33-31.82,12.42-47.47c5.62,0,10.93,0,16.97,0c-6.74,22.03-13.43,43.87-20.05,65.51
	c-0.69,0.18-1.01,0.35-1.33,0.34c-5.48-0.08-12.29,1.75-16.04-0.84c-3.37-2.33-3.43-9.5-4.84-14.57c-2.61-9.37-5.14-18.77-7.7-28.15
	C648.08,47.85,647.78,47.85,647.48,47.85z"/>
<path d="M304.67,70.43c-11.08,0-21.74-0.12-32.39,0.14c-1.38,0.03-3.37,1.73-3.95,3.13c-2.41,5.76-4.38,11.71-6.53,17.64
	c-6.04,0-11.85,0-18.39,0c2.34-6.29,4.61-12.37,6.87-18.44c8.42-22.65,16.89-45.28,25.18-67.98c1.26-3.44,2.87-5.12,6.76-4.72
	c4.44,0.47,10.02-1.22,13.1,0.91c3.05,2.11,3.65,7.8,5.23,11.96c9.43,24.75,18.84,49.52,28.25,74.28c0.46,1.22,0.87,2.46,1.29,3.68
	c-0.53,0.19-0.82,0.39-1.1,0.39c-5.48-0.08-12.18,1.71-16.07-0.83c-3.58-2.33-4.15-9.31-6.04-14.24
	C306.17,74.51,305.49,72.66,304.67,70.43z M286.62,18.6c-4.72,13.36-8.97,25.38-13.26,37.5c9.04,0,17.43,0,26.42,0
	C295.42,43.67,291.22,31.7,286.62,18.6z"/>
<path d="M261.25,170.51c0,11.13,0,21.41,0,31.94c-5.58,0-10.86,0-16.54,0c0-29.79,0-59.64,0-89.02c15.65,0,31.34-1.18,46.75,0.35
	c13.58,1.35,21.83,13.32,21.86,27.34c0.04,14.57-8.01,25.28-21.7,28.25c-4.17,0.91-8.56,0.95-12.86,1.09
	C273.15,170.64,267.53,170.51,261.25,170.51z M261.62,155.53c7.49,0,14.77,0.33,22-0.09c7.08-0.42,11.77-5.53,12.52-12.58
	c0.73-6.91-2.97-13.45-9.91-14.61c-8.02-1.33-16.31-1.1-24.61-1.55C261.62,137.1,261.62,146.35,261.62,155.53z"/>
<path d="M462.65,70.33c8.33-23.93,16.24-46.68,24.26-69.73c5.36,0,10.97,0,17.11,0c-4.89,13.98-9.68,27.71-14.48,41.43
	c-5.35,15.29-10.79,30.56-16,45.9c-0.89,2.63-1.98,3.78-4.85,3.62c-5.3-0.3-11.94,1.65-15.57-0.87c-3.56-2.47-4.17-9.31-5.9-14.29
	c-8.4-24.22-16.75-48.46-25.1-72.69c-0.31-0.9-0.53-1.84-0.89-3.09c5.6,0,10.86,0,16.61,0C445.92,23.33,454.09,46.3,462.65,70.33z"
	/>
<path d="M597.36,62.77c-8.01,0-15.79,0-23.57,0c-7.64,0-15.29,0-22.92,0c-0.18,7.85,4.15,14.23,11.11,16.71
	c6.69,2.38,12.87,0.25,17.58-5.72c0.93-1.18,2.73-2.23,4.21-2.34c4.08-0.32,8.21-0.11,12.73-0.11c-1.65,6.95-4.85,12.06-10.24,15.92
	c-15.02,10.74-37.61,6.83-47.08-8.27c-9.44-15.04-6.32-37.14,7.05-48.08c10.13-8.29,21.79-8.81,33.33-4.22
	c11.21,4.46,16.17,14.22,17.74,25.75C597.72,55.51,597.36,58.72,597.36,62.77z M550.64,52.21c10.35,0,20.38,0,30.45,0
	c-1.81-10.38-6.19-14.96-14.21-15.1C558.18,36.97,553.05,41.66,550.64,52.21z"/>
<path d="M358.99,172.15c-1.69-19.87,11.03-35.28,31-36.36c17.21-0.92,33.53,8.95,34.89,32.75c1.05,18.3-9.12,33.82-28.94,35.86
	C373.46,206.7,359.43,191.78,358.99,172.15z M409.18,170.81c-1.48-4.85-2.14-9.61-4.28-13.57c-5.71-10.55-20.18-10.63-26.02-0.19
	c-4.97,8.9-4.9,18.21,0.32,27.03c5.83,9.84,19.19,9.97,25.05,0.1C406.62,180.19,407.56,175.34,409.18,170.81z"/>
<path d="M379.43,25.5c3.44,0,6.86,0,10.8,0c0-5.99,0-11.56,0-17.35c5.46,0,10.41,0,15.88,0c0,5.47,0,11.03,0,17.13
	c5.23,0,9.96,0,14.94,0c0,4.47,0,8.4,0,12.87c-4.63,0-9.36,0-14.61,0c0,11.95-0.17,23.37,0.1,34.79c0.09,3.5,2.57,5.67,6.35,5.7
	c2.63,0.03,5.25,0.01,8.14,0.01c0,4.75,0,8.99,0,13.25c-5.87,0-11.72,0.7-17.34-0.16c-9.07-1.39-13.32-7.08-13.37-16.33
	c-0.07-12.13-0.02-24.26-0.02-36.87c-3.73,0-7.14,0-10.9,0C379.43,34.03,379.43,29.99,379.43,25.5z"/>
<path d="M374.91,40.23c-14.89-1.85-22.55,4.97-22.58,19.89c-0.02,10.29,0,20.59,0,31.12c-5.56,0-10.64,0-16,0
	c0-21.8,0-43.42,0-65.44c5.08,0,10.28,0,15.81,0c0.1,2.27,0.2,4.55,0.36,8.12c5.97-7.73,13.09-11.01,22.42-9.14
	C374.91,29.76,374.91,34.84,374.91,40.23z"/>
<path d="M357.22,136.79c0,5.44,0,10.41,0,15.29c-2.84,0-5.51-0.29-8.08,0.05c-7.69,1.04-13.05,5.77-13.74,13.49
	c-0.88,9.76-0.73,19.62-0.99,29.44c-0.06,2.31-0.01,4.63-0.01,7.29c-5.34,0-10.39,0-15.77,0c0-21.41,0-42.83,0-64.56
	c5.12,0,10.19,0,15.54,0c0.1,2.39,0.21,4.67,0.36,8.21C340.67,138.4,347.75,134.69,357.22,136.79z"/>
<path d="M526,91.34c-5.31,0-10.27,0-15.6,0c0-21.83,0-43.67,0-65.73c5.11,0,10.19,0,15.6,0C526,47.42,526,69.13,526,91.34z"/>
<path d="M525.89,15.15c-5.37,0-10.31,0-15.54,0c0-4.91,0-9.6,0-14.55c5.24,0,10.31,0,15.54,0C525.89,5.56,525.89,10.38,525.89,15.15
	z"/>
<path class="st1" d="M183.29,100.95c0,17.18,0.09,34.35-0.06,51.53c-0.04,4.12-0.45,8.35-1.45,12.34
	c-2.5,10-10.83,16.63-21.71,17.65c-4.97,0.47-9.97,0.93-14.95,0.94c-29.83,0.06-59.67,0.03-89.5-0.09
	c-4.82-0.02-9.71-0.22-14.43-1.1c-14.67-2.74-21.84-12.18-21.89-28.72c-0.09-34.19-0.06-68.37,0.01-102.56
	c0.01-3.47,0.37-6.98,0.95-10.41c1.88-11.15,9.87-18.82,21.08-20.06c5.78-0.64,11.62-1.01,17.43-1.03c29.5-0.1,59-0.1,88.5,0.02
	c5.3,0.02,10.72,0.26,15.88,1.37c12.89,2.79,19.99,12.31,20.1,26.59C183.4,65.27,183.29,83.11,183.29,100.95z M124.57,128.5
	c15.2,0.05,27.38-11.81,27.63-26.91c0.25-14.97-12.41-27.62-27.64-27.6c-15.03,0.02-27.21,12.2-27.28,27.28
	C97.21,116.2,109.49,128.45,124.57,128.5z"/>
<path class="st1" d="M286.62,18.6c4.6,13.1,8.8,25.07,13.16,37.5c-8.99,0-17.38,0-26.42,0C277.65,43.97,281.9,31.96,286.62,18.6z"/>
<path class="st1" d="M261.62,155.53c0-9.18,0-18.43,0-28.82c8.3,0.45,16.59,0.21,24.61,1.55c6.94,1.15,10.65,7.7,9.91,14.61
	c-0.75,7.04-5.45,12.16-12.52,12.58C276.39,155.86,269.11,155.53,261.62,155.53z"/>
<path class="st1" d="M550.64,52.21c2.41-10.55,7.54-15.25,16.24-15.1c8.02,0.14,12.4,4.72,14.21,15.1
	C571.02,52.21,561,52.21,550.64,52.21z"/>
<path class="st1" d="M409.18,170.81c-1.62,4.53-2.56,9.38-4.93,13.37c-5.87,9.87-19.22,9.74-25.05-0.1
	c-5.22-8.82-5.29-18.13-0.32-27.03c5.84-10.45,20.31-10.37,26.02,0.19C407.04,161.2,407.7,165.96,409.18,170.81z"/>
<path class="st0" d="M124.57,128.5c-15.08-0.05-27.36-12.3-27.29-27.23c0.07-15.08,12.25-27.26,27.28-27.28
	c15.23-0.02,27.89,12.63,27.64,27.6C151.95,116.69,139.77,128.55,124.57,128.5z"/>
</svg>
